<svg width="1290" height="199" fill="none" xmlns="http://www.w3.org/2000/svg"><path d="M.7 188h37.1V82.9l-7.2-22.5h9.1L54.6 188h71.6l14.9-127.7h8.9l-7 22.5V188h37.1V51.2h-72.7L95 178.9h-9.1L73.4 51.2H.7V188ZM195.1 137.2c0 34.1 22.9 52.8 64.6 52.8 41.9 0 65-18.6 65-52.8v-86h-37.1v67.7c0 23.1.6 38.4-27.9 38.4s-27.5-15.3-27.5-38.4V51.2h-37.1v86ZM339.8 188h37.1V82.9l-7.2-22.5h9.1L409.2 188h72.9V51.2h-37.2v105.1l7.2 22.5H443L412.5 51.2h-72.8l.1 136.8ZM494.9 119.5c0 40 27.9 70.4 72.7 70.4 39.4 0 65.6-21 69.6-54.9h-37.1c-3.1 14.7-16.5 22.3-32.2 22.3-20.8 0-36.1-11.4-36.1-37.8 0-26.2 15.3-37.6 36.1-37.6 15.7 0 29.1 7.4 32.2 22.1h37.1c-4.1-33.8-30.3-54.7-69.6-54.7-44.8 0-72.7 30.4-72.7 70.2ZM744.1 83.8V51.2h-99.5v32.6h31.2v71.6h-31.2V188h99.5v-32.6h-31.2V83.8h31.2ZM758.9 188H796V82.9l-7.2-22.5h9.1L812.8 188h71.6l14.9-127.7h8.9l-7 22.5V188h37.1V51.2h-72.8l-12.4 127.7H844L831.6 51.2h-72.8V188h.1ZM1013.7 188h37v-45.4h47.5V188h37.1v-40.5c0-12-7-19-18.8-19h-21.3v-8.9c17.1-1.7 38.4-6.8 38.4-30.1 0-30.7-31.4-38.2-64-38.2h-55.9V188Zm37-78V83.8h18.8c16.5 0 27-.8 27 13.2s-10.5 13-27 13h-18.8ZM1145.7 119.5c0 40 27.3 70.4 72.2 70.4 44.6 0 72-30.5 72-70.4 0-39.8-27.3-70.2-72-70.2-44.9 0-72.2 30.4-72.2 70.2Zm37 0c0-23.9 11.8-37.6 35.1-37.6s34.9 13.8 34.9 37.6c0 24.1-11.6 37.8-34.9 37.8-23.3 0-35.1-13.7-35.1-37.8Z" fill="#000"/><path d="M975.7 198.9c14.5 0 24.2-10.5 24.2-22.9 0-12-9.7-22.3-24.2-22.3-14.9 0-23.7 10.3-23.7 22.3 0 12.5 8.8 22.9 23.7 22.9ZM226.669.01 86.049 42.86l23.291 76.433 140.62-42.85L226.669.01Z" fill="#99FF91"/><path d="m120.5 94.3 8.4-2.6-9.1-29.7-3.2-4.8 2.1-.6 21.9 31.6 16.6-5.1L145.9 46l-8.4 2.6 9.1 29.7 3.2 4.8-2.1.6-21.9-31.6-16.6 5.1 11.3 37.1ZM155.8 63.3c3.3 10.8 13 16.9 24.8 13.3 11.7-3.6 16.4-14 13.1-24.9-3.3-10.8-13-16.9-24.7-13.3-11.9 3.7-16.5 14.1-13.2 24.9Zm8.4-2.6c-2.2-7.1 0-12.8 7-14.9 7-2.1 11.9 1.4 14 8.5 2.2 7.2.1 12.8-6.9 14.9-7 2.2-11.9-1.3-14.1-8.5ZM217.6 32.3l-2.2-7.4-25.3 7.7 2.2 7.4 8.4-2.6 6.8 22.4-8.4 2.6 2.2 7.4 25.3-7.7-2.2-7.4-8.4 2.6-6.8-22.4 8.4-2.6Z" fill="#000"/></svg>